<?xml version="1.0" encoding="UTF-8" standalone="no"?>
<!DOCTYPE svg PUBLIC "-//W3C//DTD SVG 1.1//EN"
 "http://www.w3.org/Graphics/SVG/1.1/DTD/svg11.dtd">
<!-- Generated by graphviz version 2.38.0 (20140413.2041)
 -->
<!-- Title: G Pages: 1 -->
<svg width="321pt" height="913pt"
 viewBox="0.00 0.00 321.22 913.00" xmlns="http://www.w3.org/2000/svg" xmlns:xlink="http://www.w3.org/1999/xlink">
<g id="graph0" class="graph" transform="scale(1 1) rotate(0) translate(4 909)">
<title>G</title>
<polygon fill="white" stroke="none" points="-4,4 -4,-909 317.224,-909 317.224,4 -4,4"/>
<g id="clust1" class="cluster"><title>cluster_Global</title>
<path fill="none" stroke="gray" d="M20,-8C20,-8 293.224,-8 293.224,-8 299.224,-8 305.224,-14 305.224,-20 305.224,-20 305.224,-885 305.224,-885 305.224,-891 299.224,-897 293.224,-897 293.224,-897 20,-897 20,-897 14,-897 8,-891 8,-885 8,-885 8,-20 8,-20 8,-14 14,-8 20,-8"/>
<text text-anchor="middle" x="156.612" y="-884.2" font-family="Times,serif" font-size="11.00" fill="gray">Global</text>
</g>
<g id="clust2" class="cluster"><title>cluster_\GraphDS</title>
<path fill="none" stroke="gray" d="M28,-16C28,-16 285.224,-16 285.224,-16 291.224,-16 297.224,-22 297.224,-28 297.224,-28 297.224,-858 297.224,-858 297.224,-864 291.224,-870 285.224,-870 285.224,-870 28,-870 28,-870 22,-870 16,-864 16,-858 16,-858 16,-28 16,-28 16,-22 22,-16 28,-16"/>
<text text-anchor="middle" x="156.612" y="-857.2" font-family="Times,serif" font-size="11.00" fill="gray">GraphDS</text>
</g>
<g id="clust3" class="cluster"><title>cluster_\GraphDS\Algo</title>
<path fill="none" stroke="gray" d="M173.508,-556C173.508,-556 267.322,-556 267.322,-556 273.322,-556 279.322,-562 279.322,-568 279.322,-568 279.322,-831 279.322,-831 279.322,-837 273.322,-843 267.322,-843 267.322,-843 173.508,-843 173.508,-843 167.508,-843 161.508,-837 161.508,-831 161.508,-831 161.508,-568 161.508,-568 161.508,-562 167.508,-556 173.508,-556"/>
<text text-anchor="middle" x="220.415" y="-830.2" font-family="Times,serif" font-size="11.00" fill="gray">Algo</text>
</g>
<g id="clust4" class="cluster"><title>cluster_\GraphDS\Edge</title>
<path fill="none" stroke="gray" d="M36.8032,-423C36.8032,-423 270.623,-423 270.623,-423 276.623,-423 282.623,-429 282.623,-435 282.623,-435 282.623,-536 282.623,-536 282.623,-542 276.623,-548 270.623,-548 270.623,-548 36.8032,-548 36.8032,-548 30.8032,-548 24.8032,-542 24.8032,-536 24.8032,-536 24.8032,-435 24.8032,-435 24.8032,-429 30.8032,-423 36.8032,-423"/>
<text text-anchor="middle" x="153.713" y="-535.2" font-family="Times,serif" font-size="11.00" fill="gray">Edge</text>
</g>
<g id="clust5" class="cluster"><title>cluster_\GraphDS\Graph</title>
<path fill="none" stroke="gray" d="M36.8032,-290C36.8032,-290 273.923,-290 273.923,-290 279.923,-290 285.923,-296 285.923,-302 285.923,-302 285.923,-403 285.923,-403 285.923,-409 279.923,-415 273.923,-415 273.923,-415 36.8032,-415 36.8032,-415 30.8032,-415 24.8032,-409 24.8032,-403 24.8032,-403 24.8032,-302 24.8032,-302 24.8032,-296 30.8032,-290 36.8032,-290"/>
<text text-anchor="middle" x="155.363" y="-402.2" font-family="Times,serif" font-size="11.00" fill="gray">Graph</text>
</g>
<g id="clust6" class="cluster"><title>cluster_\GraphDS\Persistence</title>
<path fill="none" stroke="gray" d="M180.109,-157C180.109,-157 260.721,-157 260.721,-157 266.721,-157 272.721,-163 272.721,-169 272.721,-169 272.721,-270 272.721,-270 272.721,-276 266.721,-282 260.721,-282 260.721,-282 180.109,-282 180.109,-282 174.109,-282 168.109,-276 168.109,-270 168.109,-270 168.109,-169 168.109,-169 168.109,-163 174.109,-157 180.109,-157"/>
<text text-anchor="middle" x="220.415" y="-269.2" font-family="Times,serif" font-size="11.00" fill="gray">Persistence</text>
</g>
<g id="clust7" class="cluster"><title>cluster_\GraphDS\Vertex</title>
<path fill="none" stroke="gray" d="M36,-24C36,-24 277.224,-24 277.224,-24 283.224,-24 289.224,-30 289.224,-36 289.224,-36 289.224,-137 289.224,-137 289.224,-143 283.224,-149 277.224,-149 277.224,-149 36,-149 36,-149 30,-149 24,-143 24,-137 24,-137 24,-36 24,-36 24,-30 30,-24 36,-24"/>
<text text-anchor="middle" x="156.612" y="-136.2" font-family="Times,serif" font-size="11.00" fill="gray">Vertex</text>
</g>
<!-- \\GraphDS\\Algo\\BFS -->
<g id="node1" class="node"><title>\\GraphDS\\Algo\\BFS</title>
<polygon fill="none" stroke="black" points="247.415,-816 193.415,-816 193.415,-780 247.415,-780 247.415,-816"/>
<text text-anchor="middle" x="220.415" y="-794.7" font-family="Courier,monospace" font-size="11.00">BFS</text>
</g>
<!-- \\GraphDS\\Algo\\DFS -->
<g id="node2" class="node"><title>\\GraphDS\\Algo\\DFS</title>
<polygon fill="none" stroke="black" points="247.415,-762 193.415,-762 193.415,-726 247.415,-726 247.415,-762"/>
<text text-anchor="middle" x="220.415" y="-740.7" font-family="Courier,monospace" font-size="11.00">DFS</text>
</g>
<!-- \\GraphDS\\Algo\\Dijkstra -->
<g id="node3" class="node"><title>\\GraphDS\\Algo\\Dijkstra</title>
<polygon fill="none" stroke="black" points="254.724,-708 186.106,-708 186.106,-672 254.724,-672 254.724,-708"/>
<text text-anchor="middle" x="220.415" y="-686.7" font-family="Courier,monospace" font-size="11.00">Dijkstra</text>
</g>
<!-- \\GraphDS\\Algo\\DijkstraMulti -->
<g id="node4" class="node"><title>\\GraphDS\\Algo\\DijkstraMulti</title>
<polygon fill="none" stroke="black" points="271.229,-654 169.601,-654 169.601,-618 271.229,-618 271.229,-654"/>
<text text-anchor="middle" x="220.415" y="-632.7" font-family="Courier,monospace" font-size="11.00">DijkstraMulti</text>
</g>
<!-- \\GraphDS\\Algo\\FloydWarshall -->
<g id="node5" class="node"><title>\\GraphDS\\Algo\\FloydWarshall</title>
<polygon fill="none" stroke="black" points="271.229,-600 169.601,-600 169.601,-564 271.229,-564 271.229,-600"/>
<text text-anchor="middle" x="220.415" y="-578.7" font-family="Courier,monospace" font-size="11.00">FloydWarshall</text>
</g>
<!-- \\GraphDS\\Edge\\DirectedEdge -->
<g id="node6" class="node"><title>\\GraphDS\\Edge\\DirectedEdge</title>
<polygon fill="none" stroke="black" points="268.128,-521 172.702,-521 172.702,-485 268.128,-485 268.128,-521"/>
<text text-anchor="middle" x="220.415" y="-499.7" font-family="Courier,monospace" font-size="11.00">DirectedEdge</text>
</g>
<!-- \\GraphDS\\Edge\\Edge -->
<g id="node7" class="node"><title>\\GraphDS\\Edge\\Edge</title>
<polygon fill="none" stroke="black" points="86.8032,-494 32.8032,-494 32.8032,-458 86.8032,-458 86.8032,-494"/>
<text text-anchor="middle" x="59.8032" y="-472.7" font-family="Courier,monospace" font-size="11.00">Edge</text>
</g>
<!-- \\GraphDS\\Edge\\DirectedEdge&#45;&gt;\\GraphDS\\Edge\\Edge -->
<g id="edge1" class="edge"><title>\\GraphDS\\Edge\\DirectedEdge&#45;&gt;\\GraphDS\\Edge\\Edge</title>
<path fill="none" stroke="black" d="M172.684,-495.045C148.545,-490.936 119.532,-485.997 97.1004,-482.179"/>
<polygon fill="none" stroke="black" points="97.4292,-478.684 86.9836,-480.457 96.2544,-485.585 97.4292,-478.684"/>
</g>
<!-- \\GraphDS\\Edge\\UndirectedEdge -->
<g id="node8" class="node"><title>\\GraphDS\\Edge\\UndirectedEdge</title>
<polygon fill="none" stroke="black" points="274.831,-467 165.999,-467 165.999,-431 274.831,-431 274.831,-467"/>
<text text-anchor="middle" x="220.415" y="-445.7" font-family="Courier,monospace" font-size="11.00">UndirectedEdge</text>
</g>
<!-- \\GraphDS\\Edge\\UndirectedEdge&#45;&gt;\\GraphDS\\Edge\\Edge -->
<g id="edge2" class="edge"><title>\\GraphDS\\Edge\\UndirectedEdge&#45;&gt;\\GraphDS\\Edge\\Edge</title>
<path fill="none" stroke="black" d="M166.158,-458.066C143.369,-461.945 117.352,-466.374 96.8741,-469.86"/>
<polygon fill="none" stroke="black" points="96.2822,-466.41 87.0114,-471.539 97.457,-473.311 96.2822,-466.41"/>
</g>
<!-- \\GraphDS\\Graph\\DirectedGraph -->
<g id="node9" class="node"><title>\\GraphDS\\Graph\\DirectedGraph</title>
<polygon fill="none" stroke="black" points="271.229,-388 169.601,-388 169.601,-352 271.229,-352 271.229,-388"/>
<text text-anchor="middle" x="220.415" y="-366.7" font-family="Courier,monospace" font-size="11.00">DirectedGraph</text>
</g>
<!-- \\GraphDS\\Graph\\Graph -->
<g id="node10" class="node"><title>\\GraphDS\\Graph\\Graph</title>
<polygon fill="none" stroke="black" points="86.8032,-361 32.8032,-361 32.8032,-325 86.8032,-325 86.8032,-361"/>
<text text-anchor="middle" x="59.8032" y="-339.7" font-family="Courier,monospace" font-size="11.00">Graph</text>
</g>
<!-- \\GraphDS\\Graph\\DirectedGraph&#45;&gt;\\GraphDS\\Graph\\Graph -->
<g id="edge3" class="edge"><title>\\GraphDS\\Graph\\DirectedGraph&#45;&gt;\\GraphDS\\Graph\\Graph</title>
<path fill="none" stroke="black" d="M169.229,-361.457C145.831,-357.474 118.505,-352.822 97.1391,-349.185"/>
<polygon fill="none" stroke="black" points="97.6184,-345.717 87.1728,-347.489 96.4436,-352.617 97.6184,-345.717"/>
</g>
<!-- \\GraphDS\\Graph\\UndirectedGraph -->
<g id="node11" class="node"><title>\\GraphDS\\Graph\\UndirectedGraph</title>
<polygon fill="none" stroke="black" points="277.931,-334 162.899,-334 162.899,-298 277.931,-298 277.931,-334"/>
<text text-anchor="middle" x="220.415" y="-312.7" font-family="Courier,monospace" font-size="11.00">UndirectedGraph</text>
</g>
<!-- \\GraphDS\\Graph\\UndirectedGraph&#45;&gt;\\GraphDS\\Graph\\Graph -->
<g id="edge4" class="edge"><title>\\GraphDS\\Graph\\UndirectedGraph&#45;&gt;\\GraphDS\\Graph\\Graph</title>
<path fill="none" stroke="black" d="M162.601,-325.671C140.749,-329.391 116.415,-333.533 97.0186,-336.835"/>
<polygon fill="none" stroke="black" points="96.3531,-333.398 87.0823,-338.527 97.5279,-340.299 96.3531,-333.398"/>
</g>
<!-- \\GraphDS\\Persistence\\ExportGraph -->
<g id="node12" class="node"><title>\\GraphDS\\Persistence\\ExportGraph</title>
<polygon fill="none" stroke="black" points="264.528,-255 176.302,-255 176.302,-219 264.528,-219 264.528,-255"/>
<text text-anchor="middle" x="220.415" y="-233.7" font-family="Courier,monospace" font-size="11.00">ExportGraph</text>
</g>
<!-- \\GraphDS\\Persistence\\ImportGraph -->
<g id="node13" class="node"><title>\\GraphDS\\Persistence\\ImportGraph</title>
<polygon fill="none" stroke="black" points="264.528,-201 176.302,-201 176.302,-165 264.528,-165 264.528,-201"/>
<text text-anchor="middle" x="220.415" y="-179.7" font-family="Courier,monospace" font-size="11.00">ImportGraph</text>
</g>
<!-- \\GraphDS\\Vertex\\DirectedVertex -->
<g id="node14" class="node"><title>\\GraphDS\\Vertex\\DirectedVertex</title>
<polygon fill="none" stroke="black" points="274.831,-122 165.999,-122 165.999,-86 274.831,-86 274.831,-122"/>
<text text-anchor="middle" x="220.415" y="-100.7" font-family="Courier,monospace" font-size="11.00">DirectedVertex</text>
</g>
<!-- \\GraphDS\\Vertex\\Vertex -->
<g id="node16" class="node"><title>\\GraphDS\\Vertex\\Vertex</title>
<polygon fill="none" stroke="black" points="87.4111,-95 32.1954,-95 32.1954,-59 87.4111,-59 87.4111,-95"/>
<text text-anchor="middle" x="59.8032" y="-73.7" font-family="Courier,monospace" font-size="11.00">Vertex</text>
</g>
<!-- \\GraphDS\\Vertex\\DirectedVertex&#45;&gt;\\GraphDS\\Vertex\\Vertex -->
<g id="edge5" class="edge"><title>\\GraphDS\\Vertex\\DirectedVertex&#45;&gt;\\GraphDS\\Vertex\\Vertex</title>
<path fill="none" stroke="black" d="M166.158,-94.9343C143.627,-91.0988 117.939,-86.7261 97.57,-83.2587"/>
<polygon fill="none" stroke="black" points="97.8932,-79.7634 87.4477,-81.5356 96.7185,-86.6642 97.8932,-79.7634"/>
</g>
<!-- \\GraphDS\\Vertex\\UndirectedVertex -->
<g id="node15" class="node"><title>\\GraphDS\\Vertex\\UndirectedVertex</title>
<polygon fill="none" stroke="black" points="281.033,-68 159.797,-68 159.797,-32 281.033,-32 281.033,-68"/>
<text text-anchor="middle" x="220.415" y="-46.7" font-family="Courier,monospace" font-size="11.00">UndirectedVertex</text>
</g>
<!-- \\GraphDS\\Vertex\\UndirectedVertex&#45;&gt;\\GraphDS\\Vertex\\Vertex -->
<g id="edge6" class="edge"><title>\\GraphDS\\Vertex\\UndirectedVertex&#45;&gt;\\GraphDS\\Vertex\\Vertex</title>
<path fill="none" stroke="black" d="M159.451,-60.2075C138.674,-63.7443 116.011,-67.6022 97.6522,-70.7273"/>
<polygon fill="none" stroke="black" points="96.9327,-67.2994 87.6619,-72.4279 98.1074,-74.2001 96.9327,-67.2994"/>
</g>
</g>
</svg>
