<?xml version="1.0" encoding="UTF-8" standalone="no"?>
<!DOCTYPE svg PUBLIC "-//W3C//DTD SVG 1.1//EN"
 "http://www.w3.org/Graphics/SVG/1.1/DTD/svg11.dtd">
<!-- Generated by graphviz version 2.38.0 (20140413.2041)
 -->
<!-- Title: G Pages: 1 -->
<svg width="321pt" height="485pt"
 viewBox="0.00 0.00 321.22 485.00" xmlns="http://www.w3.org/2000/svg" xmlns:xlink="http://www.w3.org/1999/xlink">
<g id="graph0" class="graph" transform="scale(1 1) rotate(0) translate(4 481)">
<title>G</title>
<polygon fill="white" stroke="none" points="-4,4 -4,-481 317.224,-481 317.224,4 -4,4"/>
<g id="clust1" class="cluster"><title>cluster_Global</title>
<path fill="none" stroke="gray" d="M20,-8C20,-8 293.224,-8 293.224,-8 299.224,-8 305.224,-14 305.224,-20 305.224,-20 305.224,-457 305.224,-457 305.224,-463 299.224,-469 293.224,-469 293.224,-469 20,-469 20,-469 14,-469 8,-463 8,-457 8,-457 8,-20 8,-20 8,-14 14,-8 20,-8"/>
<text text-anchor="middle" x="156.612" y="-456.2" font-family="Times,serif" font-size="11.00" fill="gray">Global</text>
</g>
<g id="clust2" class="cluster"><title>cluster_\GraphDS</title>
<path fill="none" stroke="gray" d="M28,-16C28,-16 285.224,-16 285.224,-16 291.224,-16 297.224,-22 297.224,-28 297.224,-28 297.224,-430 297.224,-430 297.224,-436 291.224,-442 285.224,-442 285.224,-442 28,-442 28,-442 22,-442 16,-436 16,-430 16,-430 16,-28 16,-28 16,-22 22,-16 28,-16"/>
<text text-anchor="middle" x="156.612" y="-429.2" font-family="Times,serif" font-size="11.00" fill="gray">GraphDS</text>
</g>
<g id="clust3" class="cluster"><title>cluster_\GraphDS\Edge</title>
<path fill="none" stroke="gray" d="M36.8032,-290C36.8032,-290 270.623,-290 270.623,-290 276.623,-290 282.623,-296 282.623,-302 282.623,-302 282.623,-403 282.623,-403 282.623,-409 276.623,-415 270.623,-415 270.623,-415 36.8032,-415 36.8032,-415 30.8032,-415 24.8032,-409 24.8032,-403 24.8032,-403 24.8032,-302 24.8032,-302 24.8032,-296 30.8032,-290 36.8032,-290"/>
<text text-anchor="middle" x="153.713" y="-402.2" font-family="Times,serif" font-size="11.00" fill="gray">Edge</text>
</g>
<g id="clust4" class="cluster"><title>cluster_\GraphDS\Graph</title>
<path fill="none" stroke="gray" d="M36.8032,-157C36.8032,-157 273.923,-157 273.923,-157 279.923,-157 285.923,-163 285.923,-169 285.923,-169 285.923,-270 285.923,-270 285.923,-276 279.923,-282 273.923,-282 273.923,-282 36.8032,-282 36.8032,-282 30.8032,-282 24.8032,-276 24.8032,-270 24.8032,-270 24.8032,-169 24.8032,-169 24.8032,-163 30.8032,-157 36.8032,-157"/>
<text text-anchor="middle" x="155.363" y="-269.2" font-family="Times,serif" font-size="11.00" fill="gray">Graph</text>
</g>
<g id="clust5" class="cluster"><title>cluster_\GraphDS\Vertex</title>
<path fill="none" stroke="gray" d="M36,-24C36,-24 277.224,-24 277.224,-24 283.224,-24 289.224,-30 289.224,-36 289.224,-36 289.224,-137 289.224,-137 289.224,-143 283.224,-149 277.224,-149 277.224,-149 36,-149 36,-149 30,-149 24,-143 24,-137 24,-137 24,-36 24,-36 24,-30 30,-24 36,-24"/>
<text text-anchor="middle" x="156.612" y="-136.2" font-family="Times,serif" font-size="11.00" fill="gray">Vertex</text>
</g>
<!-- \\GraphDS\\Edge\\DirectedEdge -->
<g id="node1" class="node"><title>\\GraphDS\\Edge\\DirectedEdge</title>
<polygon fill="none" stroke="black" points="268.128,-388 172.702,-388 172.702,-352 268.128,-352 268.128,-388"/>
<text text-anchor="middle" x="220.415" y="-366.7" font-family="Courier,monospace" font-size="11.00">DirectedEdge</text>
</g>
<!-- \\GraphDS\\Edge\\Edge -->
<g id="node2" class="node"><title>\\GraphDS\\Edge\\Edge</title>
<polygon fill="none" stroke="black" points="86.8032,-361 32.8032,-361 32.8032,-325 86.8032,-325 86.8032,-361"/>
<text text-anchor="middle" x="59.8032" y="-339.7" font-family="Courier,monospace" font-size="11.00">Edge</text>
</g>
<!-- \\GraphDS\\Edge\\DirectedEdge&#45;&gt;\\GraphDS\\Edge\\Edge -->
<g id="edge1" class="edge"><title>\\GraphDS\\Edge\\DirectedEdge&#45;&gt;\\GraphDS\\Edge\\Edge</title>
<path fill="none" stroke="black" d="M172.684,-362.045C148.545,-357.936 119.532,-352.997 97.1004,-349.179"/>
<polygon fill="none" stroke="black" points="97.4292,-345.684 86.9836,-347.457 96.2544,-352.585 97.4292,-345.684"/>
</g>
<!-- \\GraphDS\\Edge\\UndirectedEdge -->
<g id="node3" class="node"><title>\\GraphDS\\Edge\\UndirectedEdge</title>
<polygon fill="none" stroke="black" points="274.831,-334 165.999,-334 165.999,-298 274.831,-298 274.831,-334"/>
<text text-anchor="middle" x="220.415" y="-312.7" font-family="Courier,monospace" font-size="11.00">UndirectedEdge</text>
</g>
<!-- \\GraphDS\\Edge\\UndirectedEdge&#45;&gt;\\GraphDS\\Edge\\Edge -->
<g id="edge2" class="edge"><title>\\GraphDS\\Edge\\UndirectedEdge&#45;&gt;\\GraphDS\\Edge\\Edge</title>
<path fill="none" stroke="black" d="M166.158,-325.066C143.369,-328.945 117.352,-333.374 96.8741,-336.86"/>
<polygon fill="none" stroke="black" points="96.2822,-333.41 87.0114,-338.539 97.457,-340.311 96.2822,-333.41"/>
</g>
<!-- \\GraphDS\\Graph\\DirectedGraph -->
<g id="node4" class="node"><title>\\GraphDS\\Graph\\DirectedGraph</title>
<polygon fill="none" stroke="black" points="271.229,-255 169.601,-255 169.601,-219 271.229,-219 271.229,-255"/>
<text text-anchor="middle" x="220.415" y="-233.7" font-family="Courier,monospace" font-size="11.00">DirectedGraph</text>
</g>
<!-- \\GraphDS\\Graph\\Graph -->
<g id="node5" class="node"><title>\\GraphDS\\Graph\\Graph</title>
<polygon fill="none" stroke="black" points="86.8032,-228 32.8032,-228 32.8032,-192 86.8032,-192 86.8032,-228"/>
<text text-anchor="middle" x="59.8032" y="-206.7" font-family="Courier,monospace" font-size="11.00">Graph</text>
</g>
<!-- \\GraphDS\\Graph\\DirectedGraph&#45;&gt;\\GraphDS\\Graph\\Graph -->
<g id="edge3" class="edge"><title>\\GraphDS\\Graph\\DirectedGraph&#45;&gt;\\GraphDS\\Graph\\Graph</title>
<path fill="none" stroke="black" d="M169.229,-228.457C145.831,-224.474 118.505,-219.822 97.1391,-216.185"/>
<polygon fill="none" stroke="black" points="97.6184,-212.717 87.1728,-214.489 96.4436,-219.617 97.6184,-212.717"/>
</g>
<!-- \\GraphDS\\Graph\\UndirectedGraph -->
<g id="node6" class="node"><title>\\GraphDS\\Graph\\UndirectedGraph</title>
<polygon fill="none" stroke="black" points="277.931,-201 162.899,-201 162.899,-165 277.931,-165 277.931,-201"/>
<text text-anchor="middle" x="220.415" y="-179.7" font-family="Courier,monospace" font-size="11.00">UndirectedGraph</text>
</g>
<!-- \\GraphDS\\Graph\\UndirectedGraph&#45;&gt;\\GraphDS\\Graph\\Graph -->
<g id="edge4" class="edge"><title>\\GraphDS\\Graph\\UndirectedGraph&#45;&gt;\\GraphDS\\Graph\\Graph</title>
<path fill="none" stroke="black" d="M162.601,-192.671C140.749,-196.391 116.415,-200.533 97.0186,-203.835"/>
<polygon fill="none" stroke="black" points="96.3531,-200.398 87.0823,-205.527 97.5279,-207.299 96.3531,-200.398"/>
</g>
<!-- \\GraphDS\\Vertex\\DirectedVertex -->
<g id="node7" class="node"><title>\\GraphDS\\Vertex\\DirectedVertex</title>
<polygon fill="none" stroke="black" points="274.831,-122 165.999,-122 165.999,-86 274.831,-86 274.831,-122"/>
<text text-anchor="middle" x="220.415" y="-100.7" font-family="Courier,monospace" font-size="11.00">DirectedVertex</text>
</g>
<!-- \\GraphDS\\Vertex\\Vertex -->
<g id="node9" class="node"><title>\\GraphDS\\Vertex\\Vertex</title>
<polygon fill="none" stroke="black" points="87.4111,-95 32.1954,-95 32.1954,-59 87.4111,-59 87.4111,-95"/>
<text text-anchor="middle" x="59.8032" y="-73.7" font-family="Courier,monospace" font-size="11.00">Vertex</text>
</g>
<!-- \\GraphDS\\Vertex\\DirectedVertex&#45;&gt;\\GraphDS\\Vertex\\Vertex -->
<g id="edge5" class="edge"><title>\\GraphDS\\Vertex\\DirectedVertex&#45;&gt;\\GraphDS\\Vertex\\Vertex</title>
<path fill="none" stroke="black" d="M166.158,-94.9343C143.627,-91.0988 117.939,-86.7261 97.57,-83.2587"/>
<polygon fill="none" stroke="black" points="97.8932,-79.7634 87.4477,-81.5356 96.7185,-86.6642 97.8932,-79.7634"/>
</g>
<!-- \\GraphDS\\Vertex\\UndirectedVertex -->
<g id="node8" class="node"><title>\\GraphDS\\Vertex\\UndirectedVertex</title>
<polygon fill="none" stroke="black" points="281.033,-68 159.797,-68 159.797,-32 281.033,-32 281.033,-68"/>
<text text-anchor="middle" x="220.415" y="-46.7" font-family="Courier,monospace" font-size="11.00">UndirectedVertex</text>
</g>
<!-- \\GraphDS\\Vertex\\UndirectedVertex&#45;&gt;\\GraphDS\\Vertex\\Vertex -->
<g id="edge6" class="edge"><title>\\GraphDS\\Vertex\\UndirectedVertex&#45;&gt;\\GraphDS\\Vertex\\Vertex</title>
<path fill="none" stroke="black" d="M159.451,-60.2075C138.674,-63.7443 116.011,-67.6022 97.6522,-70.7273"/>
<polygon fill="none" stroke="black" points="96.9327,-67.2994 87.6619,-72.4279 98.1074,-74.2001 96.9327,-67.2994"/>
</g>
</g>
</svg>
